<svg xmlns="http://www.w3.org/2000/svg" width="640.706" height="645.478" viewBox="0 0 640.706 645.478">
  <g id="undraw_winners_re_wr1l" transform="translate(-0.007 0)">
    <path id="Path_91" data-name="Path 91" d="M429.971,754.738a3.452,3.452,0,0,1-2.5-5.983l.236-.94a9.273,9.273,0,0,0-17.192-.162c-4.091,9.575-9.385,19.488-6.752,30.034-17.392-36.859-11.477-82.709,14.225-114.231,7.1-3.914,12.863-10.867,14.362-18.94-3.516,1.191-7.9-1.669-5.256-5.372,1.146-1.416,2.3-2.82,3.449-4.235-13.356-14.224-29.27,8.131-14.569,27.33a110.665,110.665,0,0,0-12.43,19.442,46.53,46.53,0,0,0-2.778-21.613c-2.659-6.414-7.643-11.817-12.032-17.362-5.336-6.757-16.319-3.64-17.037,4.935,4.925,1.619,5.564,8.732-.069,9.706,1.475,15.951,11.9,30.61,26.249,37.605a111.1,111.1,0,0,0-6.071,46.437c-2.533-18.389-22.273-22.852-36.07-30.16a5.374,5.374,0,0,0-8.2,5.443,31.033,31.033,0,0,1,5.441,2.871,4.691,4.691,0,0,1-2.18,8.564c6.954,17.212,24.935,28.77,43.4,28.705a114.22,114.22,0,0,0,7.672,22.4h27.408c.1-.3.187-.619.275-.923a31.144,31.144,0,0,1-7.584-.452c6.712-7.947,11.9-12,8-23.1Z" transform="translate(-268.348 -135.33)" fill="#fff"/>
    <path id="Path_92" data-name="Path 92" d="M689.515,754.738a3.452,3.452,0,0,0,2.5-5.983l-.236-.94a9.273,9.273,0,0,1,17.192-.162c4.091,9.575,9.385,19.488,6.752,30.034,17.392-36.859,11.477-82.709-14.225-114.231-7.1-3.914-12.863-10.867-14.362-18.94,3.516,1.191,7.9-1.669,5.256-5.372-1.146-1.416-2.3-2.82-3.449-4.235,13.356-14.224,29.27,8.131,14.569,27.33a110.672,110.672,0,0,1,12.43,19.442,46.528,46.528,0,0,1,2.778-21.612c2.659-6.415,7.643-11.817,12.032-17.362,5.336-6.757,16.319-3.64,17.037,4.935-4.925,1.619-5.565,8.732.069,9.706-1.476,15.951-11.9,30.61-26.249,37.605a111.1,111.1,0,0,1,6.071,46.437c2.533-18.389,22.273-22.852,36.07-30.16a5.374,5.374,0,0,1,8.2,5.443,31.031,31.031,0,0,0-5.441,2.871,4.691,4.691,0,0,0,2.18,8.564c-6.955,17.212-24.935,28.77-43.4,28.705a114.219,114.219,0,0,1-7.672,22.4H690.2c-.1-.3-.187-.619-.275-.923a31.144,31.144,0,0,0,7.584-.452c-6.712-7.947-11.9-12-8-23.1Z" transform="translate(-283.541 -135.33)" fill="#fff"/>
    <path id="Path_93" data-name="Path 93" d="M434.32,650.539l-11.8,2.684-15.976-44.25,17.421-3.963Z" transform="translate(-18.184 -27.062)" fill="#ffb6b6"/>
    <path id="Path_94" data-name="Path 94" d="M701.911,776.857l-36.3,8.259-.1-.459a14.49,14.49,0,0,1,10.913-17.343h0l5.485-6.539,13.515,2.216,3.169-.721Z" transform="translate(-282.557 -141.162)" fill="#2f2e41"/>
    <path id="Path_95" data-name="Path 95" d="M633.1,426.88,639.59,437.1l-36.327,29.894-9.578-15.083Z" transform="translate(-26.555 -19.094)" fill="#ffb6b6"/>
    <path id="Path_96" data-name="Path 96" d="M909.919,531.565l19.956,31.424-.4.252a14.49,14.49,0,0,1-20-4.463h0l-8-2.974-2.446-13.475-1.742-2.743Z" transform="translate(-292.941 -130.909)" fill="#2f2e41"/>
    <path id="Path_97" data-name="Path 97" d="M505.583,421.675l-2.915-16.9,44.322-20.014,9.572-16.947a8.24,8.24,0,1,1,12.169,5.469l-15.746,24.343Z" transform="translate(-275.29 -123.141)" fill="#a0616a"/>
    <path id="Path_98" data-name="Path 98" d="M226.971,297.575l19.959-10.2,5.284,19.839L238.35,317.495Z" transform="translate(-10.152 -12.854)" fill="#adf6b1"/>
    <path id="Path_99" data-name="Path 99" d="M180.086,648.882h12.068l5.741-46.549H180.083Z" transform="translate(-8.055 -26.942)" fill="#a0616a"/>
    <path id="Path_100" data-name="Path 100" d="M460.561,763.965v-8.181l-3.173.194-12.915.765-2.989.183-2.285,27.4-.122,1.469h8.569l.275-1.459,1.244-6.631,3.214,6.631.7,1.459H475.8a5.133,5.133,0,0,0,5.1-5.111C481.862,776.207,462.968,766.526,460.561,763.965Z" transform="translate(-272.445 -140.939)" fill="#2f2e41"/>
    <path id="Path_101" data-name="Path 101" d="M29.991,457.676l-2.813,11.736,43.928,16.436,4.152-17.321Z" transform="translate(-1.215 -20.471)" fill="#a0616a"/>
    <path id="Path_102" data-name="Path 102" d="M289.568,584.717l7.956,1.908.551-3.13,2.267-12.737.518-2.949L274.748,559.2l-1.4-.462-2,8.333,1.354.608,6.158,2.756-7.2,1.579-1.583.344-5.3,22.092a5.133,5.133,0,0,0,3.781,6.152C272.7,602.576,286.517,586.462,289.568,584.717Z" transform="translate(-264.644 -132.125)" fill="#2f2e41"/>
    <path id="Path_103" data-name="Path 103" d="M460.641,447.5l-15.534-7.261-30.978,37.488L395.261,482.5a8.24,8.24,0,1,0,2.072,13.18l27.63-8.781Z" transform="translate(-269.95 -126.824)" fill="#a0616a"/>
    <path id="Path_104" data-name="Path 104" d="M694.022,301a16.648,16.648,0,1,1,16.648-16.648A16.648,16.648,0,0,1,694.022,301Zm0-31.386a14.738,14.738,0,1,0,14.738,14.738,14.737,14.737,0,0,0-14.738-14.738Z" transform="translate(-283.104 -119.107)" fill="#fff"/>
    <path id="Path_105" data-name="Path 105" d="M693.353,291.1l-.1,0a2.052,2.052,0,0,1-1.521-.79l-2.623-3.372a2.053,2.053,0,0,1,.36-2.881l.094-.073a2.053,2.053,0,0,1,2.882.36,1.5,1.5,0,0,0,2.268.11l5.325-5.622a2.056,2.056,0,0,1,2.9-.079l.087.083a2.053,2.053,0,0,1,.078,2.9l-8.263,8.722a2.051,2.051,0,0,1-1.49.641Z" transform="translate(-283.61 -119.576)" fill="#fff"/>
    <path id="Path_106" data-name="Path 106" d="M607.022,512a16.648,16.648,0,1,1,16.648-16.648A16.648,16.648,0,0,1,607.022,512Zm0-31.386a14.738,14.738,0,1,0,14.738,14.738,14.738,14.738,0,0,0-14.738-14.738Z" transform="translate(-279.213 -128.545)" fill="#fff"/>
    <path id="Path_107" data-name="Path 107" d="M606.353,502.1l-.1,0a2.052,2.052,0,0,1-1.521-.79l-2.622-3.372a2.053,2.053,0,0,1,.36-2.881l.094-.073a2.053,2.053,0,0,1,2.882.36,1.5,1.5,0,0,0,2.268.11l5.325-5.622a2.056,2.056,0,0,1,2.9-.079l.087.083a2.053,2.053,0,0,1,.078,2.9l-8.263,8.722A2.051,2.051,0,0,1,606.353,502.1Z" transform="translate(-279.719 -129.014)" fill="#fff"/>
    <path id="Path_108" data-name="Path 108" d="M416.022,277a16.648,16.648,0,1,1,16.648-16.648A16.648,16.648,0,0,1,416.022,277Zm0-31.386a14.738,14.738,0,1,0,14.738,14.738,14.738,14.738,0,0,0-14.738-14.738Z" transform="translate(-270.67 -118.034)" fill="#e6e6e6"/>
    <path id="Path_109" data-name="Path 109" d="M415.353,267.1l-.1,0a2.052,2.052,0,0,1-1.521-.79l-2.623-3.372a2.053,2.053,0,0,1,.36-2.881l.094-.073a2.053,2.053,0,0,1,2.882.36,1.5,1.5,0,0,0,2.268.11l5.325-5.622a2.056,2.056,0,0,1,2.9-.079l.087.083a2.053,2.053,0,0,1,.078,2.9l-8.263,8.722A2.05,2.05,0,0,1,415.353,267.1Z" transform="translate(-271.175 -118.502)" fill="#fff"/>
    <path id="Path_110" data-name="Path 110" d="M544.208,573.465c-38.605,0-82.972-42.84-122.226-22.486-118.85,61.628-102.49-41.5-136.634-79.85l1.121-2.248c37.675,33.781,84.713,61.267,136.03,79.483,46.374,16.464,93.1,24.092,135.1,22.079l.073,2.7Q551.016,573.466,544.208,573.465Z" transform="translate(-265.569 -128.106)" fill="#fff"/>
    <ellipse id="Ellipse_35" data-name="Ellipse 35" cx="8.07" cy="10.821" rx="8.07" ry="10.821" transform="translate(217.613 134.071)" fill="#fff"/>
    <path id="Path_111" data-name="Path 111" d="M598.213,451.566c-3.689,2.458-7.465-3.392-3.7-5.741C598.2,443.366,601.973,449.217,598.213,451.566Z" transform="translate(-279.328 -127.048)" fill="#fff"/>
    <circle id="Ellipse_36" data-name="Ellipse 36" cx="10.508" cy="10.508" r="10.508" transform="translate(287.141 106.541)" fill="#edbfb7"/>
    <path id="Path_112" data-name="Path 112" d="M614.4,286.781,674.19,112.149,608.533,284.691a3.288,3.288,0,1,0,5.863,2.09Z" transform="translate(-279.993 -112.149)" fill="#fff" opacity="0.3"/>
    <circle id="Ellipse_37" data-name="Ellipse 37" cx="10.224" cy="10.224" r="10.224" transform="translate(263.825 366.937)" fill="#fff"/>
    <path id="Path_113" data-name="Path 113" d="M442.759,511.053s-25.487,16.6-18.748,27.624c.232.38-30.444,40.9-30.444,40.9l-57.91-3.676-2.04,19.383,51.556,14.932s12.613,9.266,22.356-.943,42.2-41.474,42.2-41.474l1.565,63.121L435,718.383l24.326-1.542L483,629.089l8.739-99.4Z" transform="translate(-267.728 -129.992)" fill="#2f2e41"/>
    <path id="Path_114" data-name="Path 114" d="M465.109,406.586l-10.718,8.122-12.216,26.073,11.747,15.954s9.881,17.125-5.935,33.709-27.962,34.3-15.3,33.665,63.932,25.446,64.269,4.081,1.02-37.745,1.02-37.745l13.442-34.095s8.009-20.339,2.386-26.428-13.151-13.868-13.151-13.868L486.96,402.363H474.6Z" transform="translate(-271.924 -125.13)" fill="#adf6b1"/>
    <path id="Path_115" data-name="Path 115" d="M486.362,354.216c24.045,13.682,4.305,49.783-20.188,36.928C442.131,377.461,461.87,341.36,486.362,354.216Z" transform="translate(-273.17 -122.855)" fill="#a0616a"/>
    <path id="Path_116" data-name="Path 116" d="M498.76,361.323c-1.685,2.191-5.2,1.164-12.1,2.727a28.738,28.738,0,0,0-.8-6.937,19.526,19.526,0,0,1-3.292,7.807c-5.985.664,1.352,18.847-1.713,32.216-3.949-28.2-12.254-20.815-8.058-15.221,2.686,3.581.9,14.325-7.163,8.953-13.3,6.319-32.232-25.07-11.244-39.79-.375-7.957,8.479-9.214,13.931-6.768C481.55,334.456,496.666,347.085,498.76,361.323Z" transform="translate(-272.711 -122.377)" fill="#2f2e41"/>
    <path id="Path_117" data-name="Path 117" d="M434.339,340.6c-5.353,32.913-34.046-6.053-47.537,26.337-4.242,11.73,3.036,20.121,7.64,29.857,1.051,8-9.358,12.061-10.449,19.426-.3,16.886,26.939,15.852,34.554,5.2,7.825-11.152-1.519-26.115,3.184-38.085,6.611-16.619,33.5-16.743,35.837-36.078C453.031,340.8,440.834,333.4,434.339,340.6Z" transform="translate(-269.982 -122.235)" fill="#2f2e41"/>
    <path id="Path_118" data-name="Path 118" d="M459.1,343.622c-.175.074-.35.147-.507.23h-.009c-.147.074-.295.147-.442.23-.018.009-.028.018-.046.028-.194-.184-.387-.369-.59-.553a2.133,2.133,0,0,0,.037.9l.028.111c.184.194.378.378.581.571.184-.138.359-.286.544-.424.111-.092.221-.184.341-.277.018-.24.046-.516.074-.82Zm5.549-10.25c-4.111-.94-5.438,4.434-5.834,7.024-1.493-9.4-7.706-6.443-5.558-.028a14.364,14.364,0,0,0,3.161,5.088c.194.221.406.442.627.664-.249,1.29,1,.959,2.7-.23a22.589,22.589,0,0,0,3.456-3.033c3.383-3.548,6.018-8.3,1.447-9.484Zm.129,5.291a32.212,32.212,0,0,1-4.249,4.507q-.733.664-1.493,1.272c-.009.083-.009.157-.018.221a1.684,1.684,0,0,1-.129.258c-.516.931-1.1.424-1.318-.35-.018-.028-.046-.055-.065-.083a12.988,12.988,0,0,1-1.908-2.526c-3.807-6.6,2.323-11.088,2.019,1.235a1.167,1.167,0,0,0-.111.359,2.133,2.133,0,0,0,.037.9l.028.111c.184.194.378.378.581.571.184-.138.359-.286.544-.424.111-.092.221-.184.341-.277.018-.24.046-.516.074-.82v-.009c.24-2.47.894-6.913,2.1-8.12,2.654-2.036,6.092.167,3.566,3.171Zm-5.678,4.959c-.175.074-.35.147-.507.23h-.009c-.147.074-.295.147-.442.23-.018.009-.028.018-.046.028-.194-.184-.387-.369-.59-.553a2.133,2.133,0,0,0,.037.9l.028.111c.184.194.378.378.581.571.184-.138.359-.286.544-.424.111-.092.221-.184.341-.277.018-.24.046-.516.074-.82Z" transform="translate(-273.06 -122.039)" fill="#2f2e41"/>
    <path id="Path_119" data-name="Path 119" d="M689.674,533.349l-8.88,23.159-41.658,82.172,36.6,95.591,18.892-4.987-15.571-90.6L723.733,584.4l53.052,35.982s23.528,18.368,32.479.955,66.869-54.45,66.869-54.45L861.8,551.6l-66.7,31.213-46.034-64.794Z" transform="translate(-281.394 -130.304)" fill="#2b1c40"/>
    <path id="Path_120" data-name="Path 120" d="M735.65,418.816l-14.618-15.706-25.076-3.45L665.23,421.17l.31,23.808,15.189,56.1s-5.785,40.307,10.374,39.9,24.968-8.461,31.549-6.821,34.559,8.62,36.332,1.309,11.2-2.076,10.784-8.992-25.514-56.769-25.514-56.769l6.241-49.857Z" transform="translate(-282.561 -125.009)" fill="#0f7173"/>
    <path id="Path_121" data-name="Path 121" d="M833.392,343.65a8.954,8.954,0,0,1-9.593,9.823l-33.617,63.933-9.026-13.855,34.36-60.339a9,9,0,0,1,17.874.438Z" transform="translate(-287.747 -122.139)" fill="#ffb6b6"/>
    <path id="Path_122" data-name="Path 122" d="M725.052,429.017s-1.333,11.372,11.469,14.188,48.272-17.452,54.087-20.547c1.821-.969,4.292-5.721,6.827-11.79,1.138-2.725,2.289-5.716,3.4-8.749.643-1.755,3.722-2.235,4.328-3.975s-1.268-4.725-.722-6.356c2.59-7.745,4.425-13.89,4.425-13.89l-8.485-15.939c-11.867,6.274-17.954,20.094-22.431,36.015Z" transform="translate(-285.235 -123.323)" fill="#0f7173"/>
    <path id="Path_123" data-name="Path 123" d="M568.528,358.912a8.954,8.954,0,0,0,11.746,7.109l48.547,53.486,5.271-15.673-48.367-49.82a9,9,0,0,0-17.2,4.9Z" transform="translate(-278.231 -122.72)" fill="#ffb6b6"/>
    <path id="Path_124" data-name="Path 124" d="M693.447,414.84s4.137,10.677-7.554,16.606-51.1-4.816-57.508-6.358c-2.005-.483-5.587-4.465-9.56-9.707-1.784-2.353-3.647-4.961-5.482-7.62-1.062-1.539-4.162-1.232-5.185-2.766s.045-4.892-.892-6.335c-4.446-6.851-7.76-12.34-7.76-12.34l4.227-17.555c13.06,3.1,22.411,14.961,30.73,29.255Z" transform="translate(-279.621 -123.628)" fill="#0f7173"/>
    <circle id="Ellipse_38" data-name="Ellipse 38" cx="23.859" cy="23.859" r="23.859" transform="translate(402.573 222.938)" fill="#ffb6b6"/>
    <path id="Path_125" data-name="Path 125" d="M737.085,355.287c-2.51-3.883-7.219-6.47-11.785-5.743a16.093,16.093,0,0,0-26.965-9.387,5,5,0,0,0-4.894-.49,10.318,10.318,0,0,0-3.976,3.191,23.159,23.159,0,0,0-3.241,23.56c-.558-2.028,1.475-3.937,3.529-4.392s4.208-.025,6.291-.321c2.67-.38,5.069-1.929,7.743-2.277a17.628,17.628,0,0,1,6.7.861,18.161,18.161,0,0,0,6.7.9c2.25-.267,5.149,8.261,5.11,14.268-.007,1.138.227,2.6,1.34,2.841,1.37.3,2.164-1.593,3.468-2.109a2.413,2.413,0,0,1,2.959,1.573,3.933,3.933,0,0,1-.751,3.522,11.624,11.624,0,0,1-2.818,2.444l.537.447a3.2,3.2,0,0,0,4.034.5,8.706,8.706,0,0,0,2.9-3.3,38.806,38.806,0,0,0,5.312-12.73C740.109,364.1,739.594,359.17,737.085,355.287Z" transform="translate(-283.417 -122.152)" fill="#2f2e41"/>
    <path id="Path_126" data-name="Path 126" d="M911.749,454.217c-30.775,23.309-92.008,15.945-111.01,55.871-57.534,120.885-106.755,28.8-157.131,18.841l-.464-2.469c50.429,4.183,104.52-2.307,156.427-18.769,46.908-14.875,88.759-37,121.025-63.967l1.69,2.11Q917.176,450.108,911.749,454.217Z" transform="translate(-281.573 -126.98)" fill="#fff"/>
    <path id="Path_127" data-name="Path 127" d="M768.454,786.07c-.733,2.171-419.212,2.171-420,.005C349.183,783.9,767.662,783.9,768.454,786.07Z" transform="translate(-268.392 -142.22)" fill="#ccc"/>
  </g>
</svg>
