<?xml version="1.0" encoding="utf-8"?>
<!-- Generator: Adobe Illustrator 26.0.1, SVG Export Plug-In . SVG Version: 6.00 Build 0)  -->
<svg version="1.1" id="Layer_1" xmlns="http://www.w3.org/2000/svg" xmlns:xlink="http://www.w3.org/1999/xlink" x="0px" y="0px"
	 viewBox="0 0 1366 832" style="enable-background:new 0 0 1366 832;" xml:space="preserve">
<style type="text/css">
	.st0{fill:#2B1C40;}
</style>
<g id="Layer_2_00000150060428570958944030000004176172171857906336_">
	<g id="Layer_1-2">
		<g id="Layer_2-2">
			<g id="Layer_1-3">
				<path id="Path_41" class="st0" d="M1366,319.6V747H0c0-70.8,0.3-268.3,0.3-339V87.5C0.3,74.3,0,80.1,0,52.8
					c0-1.5,14-21.8,40.4-31.5C84,5.4,131.2,4,177.2,1.8c92.3-4.3,184.5,8.4,272.9,37.6c21.1,7,42,14.9,62.6,23.7
					c77.6,33.3,147.1,83.1,219.3,127.5c78.5,48.3,160.6,93.2,249.7,112.4c40.5,8.8,81.5,13.1,122.6,14.2
					C1114.9,317.5,1366,319.5,1366,319.6z"/>
			</g>
		</g>
	</g>
</g>
</svg>
