<svg xmlns="http://www.w3.org/2000/svg" width="393.13" height="448.502" viewBox="0 0 393.13 448.502">
  <g id="undraw_welcoming_re_x0qo" transform="translate(0 0)">
    <path id="Path_75" data-name="Path 75" d="M581.629,750.113l-.5-11.252-.156-.082a6.914,6.914,0,0,0-9.8,8.088c1.612,5.465,2.694,11.357,5.644,16.141a21.859,21.859,0,0,0,16.03,10.1l6.813,4.171a36.629,36.629,0,0,0-7.72-29.682,35.386,35.386,0,0,0-6.5-6.042C583.808,745.858,581.629,750.113,581.629,750.113Z" transform="translate(-393.189 -329.363)" fill="#fff"/>
    <path id="Path_76" data-name="Path 76" d="M420.767,406.278c-13.116-13.527-32.124-21.285-52.149-21.285l-.772,0a74.465,74.465,0,0,1-37.539-10.138l-1.186-.691.955-.984a72.581,72.581,0,0,0,12.8-18.122,21.948,21.948,0,0,1-17.713,5.722,22.474,22.474,0,0,1-16.5-10.567c-7-11.356-15.342-27.469-15.342-39.744a74.692,74.692,0,0,1,24.368-55.116,46.512,46.512,0,0,0,15.365-34.681l0-.93a105.518,105.518,0,0,1,3.135-25.542l.207-.828.867.03a71.313,71.313,0,0,0,16.675-1.4,56.286,56.286,0,0,1-14.955-3.978l-.933-.378.317-.956c21.832-13.517,71.112-6.517,99.716-71.961,23.194-53.066,105.029,47.106,105.029,105.009,0,5.908-5.847,13.716-1.47,17.621,47.317,42.214,14.669,69.321,4.376,96.6-2.442,6.472,2.853,13.576,2.853,20.578,0,1.188-.03,2.414-.09,3.645l-.091,1.892-1.578-1.05a52.258,52.258,0,0,1-8.63-7.078,45.541,45.541,0,0,1-1.444,39.316c-4.959,9.359-9.756,16.06-14.259,19.914a74.449,74.449,0,0,1-102.012-4.9Z" transform="translate(-293.324 -99.719)" fill="#edbfb7"/>
    <path id="Path_77" data-name="Path 77" d="M579.918,644.149A1.34,1.34,0,0,0,581.243,643c.057-.4,5.634-40.623.625-94.082-4.626-49.37-19.481-120.481-63.982-178.883a1.34,1.34,0,0,0-2.132,1.625c44.116,57.9,58.852,128.486,63.445,177.507,4.98,53.147-.554,93.057-.61,93.454a1.341,1.341,0,0,0,1.329,1.529Z" transform="translate(-373.255 -196.787)" fill="#2b1c40"/>
    <path id="Path_78" data-name="Path 78" d="M484.742,480.258a1.34,1.34,0,0,0,.789-2.424,184.717,184.717,0,0,0-40.779-20.759c-22.5-8.237-56.711-15.7-91.931-4.494a1.34,1.34,0,1,0,.813,2.554c34.5-10.979,68.091-3.635,90.2,4.458A181.68,181.68,0,0,1,483.955,480a1.335,1.335,0,0,0,.787.256Z" transform="translate(-314.394 -224.633)" fill="#2b1c40"/>
    <path id="Path_79" data-name="Path 79" d="M632.506,259.565a1.34,1.34,0,0,0-2.361-.962A184.721,184.721,0,0,0,606.5,297.781c-9.836,21.847-19.747,55.432-11.1,91.369a1.34,1.34,0,0,0,2.606-.627c-8.466-35.2,1.278-68.176,10.942-89.642a181.681,181.681,0,0,1,23.246-38.551A1.335,1.335,0,0,0,632.506,259.565Z" transform="translate(-400.819 -156.714)" fill="#2b1c40"/>
    <path id="Path_80" data-name="Path 80" d="M652.294,358.911c1.131,9.123,7.452,16.645,16.645,16.645a16.645,16.645,0,0,0,16.645-16.645c0-9.193-7.492-15.8-16.645-16.645C659.227,341.364,650.842,347.2,652.294,358.911Z" transform="translate(-422.421 -186.954)" fill="#2f2e41"/>
    <path id="Path_81" data-name="Path 81" d="M397.1,673.587h6.339l3.015-24.449H397.1Z" transform="translate(-142.876 -233.557)" fill="#ffb6b6"/>
    <path id="Path_82" data-name="Path 82" d="M690.081,791.455h19.492v-.247a7.587,7.587,0,0,0-7.587-7.587h0l-3.56-2.7-6.643,2.7h-1.7Z" transform="translate(-436.075 -344.813)" fill="#2b1c40"/>
    <path id="Path_83" data-name="Path 83" d="M358.1,673.587h6.339l3.015-24.449H358.1Z" transform="translate(-128.844 -233.557)" fill="#ffb6b6"/>
    <path id="Path_84" data-name="Path 84" d="M651.081,791.455h19.492v-.247a7.587,7.587,0,0,0-7.587-7.587h0l-3.561-2.7-6.643,2.7h-1.7Z" transform="translate(-422.043 -344.813)" fill="#2b1c40"/>
    <path id="Path_85" data-name="Path 85" d="M695.436,545.04l4.481,15.365-5.28,65.073s2.719,4.069.8,4.069-4.383.9-2.832,3.332-3.752,11.153-3.752,11.153l-7.5,46.334-9.558-.141s-4.859-2.707-2.132-5.444,4.648-2.737,2.087-5.3-2.561-1.79-2.561-3.776-2.566-26.258,3.519-35.569l-1.833-37.961-4.318,37.235-8.891,49.674-9.207-.076s-4.253-4.1-4.245-7.133,2.628-3.286.677-5.081-1.95-29.364,3.812-44.688c0,0,3.259-8.562-.007-11.5s0-6.291,0-6.291,5.174-1.87,0-7.259-.028-43.5-.028-43.5-5.661-15.385.072-21.434S695.436,545.04,695.436,545.04Z" transform="translate(-419.394 -258.141)" fill="#2b1c40"/>
    <path id="Path_86" data-name="Path 86" d="M598.025,578.346l8-19.323,6.3,3.5-3.8,19.656a7,7,0,1,1-10.491-3.833Z" transform="translate(-401.801 -264.975)" fill="#ffb6b6"/>
    <path id="Path_87" data-name="Path 87" d="M799.56,342.9l-12.166,17.009-5.343-4.836,8.159-18.283a7,7,0,1,1,9.349,6.111Z" transform="translate(-469.166 -182.324)" fill="#ffb6b6"/>
    <path id="Path_88" data-name="Path 88" d="M681.8,478.708c7.891,12.24-31.774,27.772-46.994,21.536-2.665-1.092-11.832-4.7-5.566-9.7s-.727-5.7-.892-8.959c-.111-2.176,1.574-6.95-.184-6.745s-3.815-2.8.013-4.1.041-2.476.075-3.705c.366-13.416,10.659-34.755,10.659-34.755l-18.547,47.411s.137,8.2-2.228,5.7-2.193,5.606-2.193,5.606-3.517,2.454-1.495,3.82-2.177,5.566-2.177,5.566l-9.8-.7s.153-7.28,1.827-8.889.851-4.143.851-4.143,4.356-3.856,1.436-6.987c-3.756-4.027,9.939-72.042,14.665-71.369a18,18,0,0,1,12.855-13.733l10.584-2.914,1.879-7.457h14.9l2.6,4.9L675.4,394.2c2.134-3.011,3.729-6.184,12.468-7.213,0,0,23.548-21.426,22.4-23.1s2.5-5.59,2.5-5.59,3.117-1.02,1.358-1.565,1.566-1.8,1.566-1.8,3.08-.809,1.627-1.875,4.847-1.765,4.847-1.765l8.173,6.669-1.652,2.8s1.007,3.814-.307,2.422-1.562,2.649-1.562,2.649-.671,4.425-4.652,5.758-7,14-7,14c-9.388,12.207-20.468,21.729-33.6,28C686.687,419.46,681.8,478.708,681.8,478.708Z" transform="translate(-404.555 -190.234)" fill="#0f7173"/>
    <circle id="Ellipse_10" data-name="Ellipse 10" cx="14.76" cy="14.76" r="14.76" transform="translate(233.598 160.07)" fill="#ffb6b6"/>
    <path id="Path_89" data-name="Path 89" d="M657.033,362.927c.467,3.207,3.2,7.682,2.561,7.682s-5.192-13.222-.64-14.084c3.3-.625,4.04-.077,7.125-1.415l-.435.41c2.042,1.485,4.885.57,7.215-.4s5.173-1.876,7.221-.4c1.287.928,1.831,2.542,2.631,3.912s2.279,2.676,3.8,2.254a3.01,3.01,0,0,0,1.921-2.977c-.006-1.268-1.657-2.473-1.1-3.611,1.647-3.37.166-5.668-3.425-7.254q-1.959-.3-3.918-.608a11.113,11.113,0,0,1,2.458-2.471,5.617,5.617,0,0,0-1.985-2.542,6.23,6.23,0,0,0-3.547-.512l-8.1.423a14.286,14.286,0,0,0-5.851,1.14c-2.228,1.146-3.688,3.38-4.75,5.653C655.836,353.241,656.214,357.351,657.033,362.927Z" transform="translate(-423.959 -186.489)" fill="#2f2e41"/>
    <path id="Path_90" data-name="Path 90" d="M561.048,799.116l145.166.2a.762.762,0,0,0,0-1.525l-145.166-.2a.762.762,0,0,0,0,1.525Z" transform="translate(-389.375 -350.811)" fill="#cacaca"/>
    <ellipse id="Ellipse_11" data-name="Ellipse 11" cx="3.365" cy="4.838" rx="3.365" ry="4.838" transform="matrix(0.144, -0.99, 0.99, 0.144, 109.109, 383.795)" fill="#fff"/>
    <ellipse id="Ellipse_12" data-name="Ellipse 12" cx="3.365" cy="4.838" rx="3.365" ry="4.838" transform="matrix(0.144, -0.99, 0.99, 0.144, 140.589, 380.723)" fill="#3f3d56"/>
    <ellipse id="Ellipse_13" data-name="Ellipse 13" cx="3.365" cy="4.838" rx="3.365" ry="4.838" transform="matrix(0.144, -0.99, 0.99, 0.144, 100.489, 358.309)" fill="#0f7173"/>
    <ellipse id="Ellipse_14" data-name="Ellipse 14" cx="3.057" cy="2.127" rx="3.057" ry="2.127" transform="matrix(0.008, -1, 1, 0.008, 92.592, 348.958)" fill="#fff"/>
    <ellipse id="Ellipse_15" data-name="Ellipse 15" cx="3.057" cy="2.127" rx="3.057" ry="2.127" transform="matrix(0.008, -1, 1, 0.008, 87.953, 329.515)" fill="#3f3d56"/>
    <ellipse id="Ellipse_16" data-name="Ellipse 16" cx="3.057" cy="2.127" rx="3.057" ry="2.127" transform="matrix(0.008, -1, 1, 0.008, 124.026, 363.735)" fill="#fff"/>
    <ellipse id="Ellipse_17" data-name="Ellipse 17" cx="3.057" cy="2.127" rx="3.057" ry="2.127" transform="matrix(0.008, -1, 1, 0.008, 108.813, 371.33)" fill="#0f7173"/>
    <ellipse id="Ellipse_18" data-name="Ellipse 18" cx="3.057" cy="2.127" rx="3.057" ry="2.127" transform="matrix(0.008, -1, 1, 0.008, 129.99, 385.368)" fill="#3f3d56"/>
    <ellipse id="Ellipse_19" data-name="Ellipse 19" cx="3.365" cy="4.838" rx="3.365" ry="4.838" transform="matrix(0.144, -0.99, 0.99, 0.144, 351.106, 285.204)" fill="#fff"/>
    <ellipse id="Ellipse_20" data-name="Ellipse 20" cx="3.365" cy="4.838" rx="3.365" ry="4.838" transform="matrix(0.144, -0.99, 0.99, 0.144, 382.586, 282.132)" fill="#2b1c40"/>
    <ellipse id="Ellipse_21" data-name="Ellipse 21" cx="3.365" cy="4.838" rx="3.365" ry="4.838" transform="matrix(0.144, -0.99, 0.99, 0.144, 342.486, 259.718)" fill="#0f7173"/>
    <ellipse id="Ellipse_22" data-name="Ellipse 22" cx="3.057" cy="2.127" rx="3.057" ry="2.127" transform="matrix(0.008, -1, 1, 0.008, 334.589, 250.367)" fill="#fff"/>
    <ellipse id="Ellipse_23" data-name="Ellipse 23" cx="3.057" cy="2.127" rx="3.057" ry="2.127" transform="matrix(0.008, -1, 1, 0.008, 329.95, 230.924)" fill="#2b1c40"/>
    <ellipse id="Ellipse_24" data-name="Ellipse 24" cx="3.057" cy="2.127" rx="3.057" ry="2.127" transform="matrix(0.008, -1, 1, 0.008, 366.023, 265.144)" fill="#fff"/>
    <ellipse id="Ellipse_25" data-name="Ellipse 25" cx="3.057" cy="2.127" rx="3.057" ry="2.127" transform="matrix(0.008, -1, 1, 0.008, 350.81, 272.739)" fill="#0f7173"/>
    <ellipse id="Ellipse_26" data-name="Ellipse 26" cx="3.057" cy="2.127" rx="3.057" ry="2.127" transform="matrix(0.008, -1, 1, 0.008, 371.987, 286.777)" fill="#2b1c40"/>
    <ellipse id="Ellipse_27" data-name="Ellipse 27" cx="3.365" cy="4.838" rx="3.365" ry="4.838" transform="matrix(0.144, -0.99, 0.99, 0.144, 233.949, 102.746)" fill="#fff"/>
    <ellipse id="Ellipse_28" data-name="Ellipse 28" cx="3.365" cy="4.838" rx="3.365" ry="4.838" transform="matrix(0.144, -0.99, 0.99, 0.144, 265.429, 99.674)" fill="#3f3d56"/>
    <ellipse id="Ellipse_29" data-name="Ellipse 29" cx="3.365" cy="4.838" rx="3.365" ry="4.838" transform="matrix(0.144, -0.99, 0.99, 0.144, 225.329, 77.26)" fill="#0f7173"/>
    <ellipse id="Ellipse_30" data-name="Ellipse 30" cx="3.057" cy="2.127" rx="3.057" ry="2.127" transform="matrix(0.008, -1, 1, 0.008, 217.432, 67.91)" fill="#e6e6e6"/>
    <ellipse id="Ellipse_31" data-name="Ellipse 31" cx="3.057" cy="2.127" rx="3.057" ry="2.127" transform="matrix(0.008, -1, 1, 0.008, 212.793, 48.466)" fill="#3f3d56"/>
    <ellipse id="Ellipse_32" data-name="Ellipse 32" cx="3.057" cy="2.127" rx="3.057" ry="2.127" transform="matrix(0.008, -1, 1, 0.008, 248.866, 82.686)" fill="#e6e6e6"/>
    <ellipse id="Ellipse_33" data-name="Ellipse 33" cx="3.057" cy="2.127" rx="3.057" ry="2.127" transform="matrix(0.008, -1, 1, 0.008, 233.653, 90.281)" fill="#0f7173"/>
    <ellipse id="Ellipse_34" data-name="Ellipse 34" cx="3.057" cy="2.127" rx="3.057" ry="2.127" transform="matrix(0.008, -1, 1, 0.008, 254.83, 104.319)" fill="#3f3d56"/>
  </g>
</svg>
